<svg width="236" height="192" viewBox="0 0 236 192" fill="none" xmlns="http://www.w3.org/2000/svg">
<g clip-path="url(#clip0_20_8129)">
<rect width="235" height="192" transform="translate(0.500061)" fill="white"/>
<path d="M160.054 68.5579C161.249 68.5579 162.217 67.5878 162.217 66.3912C162.217 65.1945 161.249 64.2244 160.054 64.2244C158.86 64.2244 157.892 65.1945 157.892 66.3912C157.892 67.5878 158.86 68.5579 160.054 68.5579Z" fill="#CBCBCB"/>
<path d="M130.643 68.5579C131.837 68.5579 132.805 67.5878 132.805 66.3912C132.805 65.1945 131.837 64.2244 130.643 64.2244C129.448 64.2244 128.48 65.1945 128.48 66.3912C128.48 67.5878 129.448 68.5579 130.643 68.5579Z" fill="#CBCBCB"/>
<path d="M180.668 145.227H156.648C156.008 145.226 155.394 144.971 154.942 144.518C154.489 144.065 154.234 143.451 154.234 142.811V121.996C154.234 121.355 154.489 120.741 154.942 120.288C155.394 119.835 156.008 119.58 156.648 119.58H180.668C181.308 119.58 181.922 119.835 182.374 120.288C182.827 120.741 183.081 121.355 183.082 121.996V142.811C183.081 143.451 182.827 144.065 182.374 144.518C181.922 144.971 181.308 145.226 180.668 145.227Z" fill="#F2F2F2"/>
<path d="M180.668 118.836H156.648C156.008 118.836 155.394 118.581 154.942 118.128C154.489 117.675 154.234 117.061 154.234 116.42V95.605C154.234 94.9645 154.489 94.3504 154.942 93.8974C155.394 93.4445 156.008 93.1897 156.648 93.189H180.668C181.308 93.1897 181.922 93.4445 182.374 93.8974C182.827 94.3504 183.081 94.9645 183.082 95.605V116.42C183.081 117.061 182.827 117.675 182.374 118.128C181.922 118.581 181.308 118.836 180.668 118.836Z" fill="#F2F2F2"/>
<path d="M180.668 171.618H156.648C156.008 171.617 155.394 171.362 154.942 170.909C154.489 170.456 154.234 169.842 154.234 169.201V148.386C154.234 147.746 154.489 147.132 154.942 146.679C155.394 146.226 156.008 145.971 156.648 145.97H180.668C181.308 145.971 181.922 146.226 182.374 146.679C182.827 147.132 183.081 147.746 183.082 148.386V169.201C183.081 169.842 182.827 170.456 182.374 170.909C181.922 171.362 181.308 171.617 180.668 171.618Z" fill="#F2F2F2"/>
<path d="M151.076 171.618H127.056C126.416 171.617 125.803 171.362 125.35 170.909C124.897 170.456 124.643 169.842 124.642 169.201V148.386C124.643 147.746 124.897 147.132 125.35 146.679C125.803 146.226 126.416 145.971 127.056 145.97H151.076C151.717 145.971 152.33 146.226 152.783 146.679C153.235 147.132 153.49 147.746 153.491 148.386V169.201C153.49 169.842 153.235 170.456 152.783 170.909C152.33 171.362 151.717 171.617 151.076 171.618Z" fill="#F2F2F2"/>
<path d="M216.395 118.836H186.24C185.599 118.836 184.986 118.581 184.533 118.128C184.081 117.675 183.826 117.061 183.825 116.42V95.605C183.826 94.9645 184.081 94.3504 184.533 93.8974C184.986 93.4445 185.599 93.1897 186.24 93.189H216.395C217.035 93.1897 217.649 93.4445 218.101 93.8974C218.554 94.3504 218.809 94.9645 218.809 95.605V116.42C218.809 117.061 218.554 117.675 218.101 118.128C217.649 118.581 217.035 118.836 216.395 118.836Z" fill="#F2F2F2"/>
<path d="M122.298 92.2596V92.1815H123.161V92.2596H145.193V92.1815H146.055V92.2596H168.088V92.4215H168.95V92.2596H190.982V92.4215H191.844V92.2596H218.624V13.608C218.624 11.821 218.352 10.0515 217.823 8.40046C217.294 6.74946 216.519 5.24932 215.542 3.98569C214.565 2.72207 213.405 1.71972 212.129 1.03585C210.852 0.351982 209.484 0 208.103 0H105.572C102.781 9.85809e-07 100.105 1.4337 98.1321 3.98569C96.1591 6.53769 95.0506 9.99894 95.0506 13.608V92.2596H122.298Z" fill="#E6E6E6"/>
<path d="M216.395 119.58H186.24C184.908 119.58 183.825 121.783 183.825 124.492V169.202C183.826 169.72 183.993 170.224 184.302 170.64C184.61 171.056 185.044 171.362 185.54 171.513C185.748 171.648 185.991 171.722 186.24 171.725H216.395C216.644 171.722 216.886 171.648 217.095 171.513C217.59 171.362 218.024 171.056 218.333 170.64C218.642 170.224 218.809 169.72 218.809 169.202V124.492C218.809 121.783 217.726 119.58 216.395 119.58Z" fill="#F2F2F2"/>
<path d="M191.844 172.918V172.463H190.982V172.918H168.95V173.206H168.088V172.918H146.055V173.206H145.193V172.918H123.161V173.206H122.298V172.918H95.0506V177.074C95.0506 180.683 96.1591 184.144 98.1321 186.696C100.105 189.248 102.781 190.682 105.572 190.682H208.103C210.893 190.682 213.569 189.248 215.542 186.696C217.515 184.144 218.624 180.683 218.624 177.074V172.918H191.844Z" fill="#E6E6E6"/>
<path d="M121.485 145.227H97.465C96.8249 145.226 96.2112 144.971 95.7586 144.518C95.3059 144.065 95.0513 143.451 95.0506 142.811V121.996C95.0513 121.355 95.3059 120.741 95.7586 120.288C96.2112 119.835 96.8249 119.58 97.465 119.58H121.485C122.125 119.58 122.739 119.835 123.191 120.288C123.644 120.741 123.898 121.355 123.899 121.996V142.811C123.898 143.451 123.644 144.065 123.191 144.518C122.739 144.971 122.125 145.226 121.485 145.227Z" fill="#F2F2F2"/>
<path d="M121.485 171.618H97.465C96.8249 171.617 96.2112 171.362 95.7586 170.909C95.3059 170.456 95.0513 169.842 95.0506 169.201V148.386C95.0513 147.746 95.3059 147.132 95.7586 146.679C96.2112 146.226 96.8249 145.971 97.465 145.97H121.485C122.125 145.971 122.739 146.226 123.191 146.679C123.644 147.132 123.898 147.746 123.899 148.386V169.201C123.898 169.842 123.644 170.456 123.191 170.909C122.739 171.362 122.125 171.617 121.485 171.618Z" fill="#F2F2F2"/>
<path d="M151.076 118.836H127.056C126.416 118.836 125.803 118.581 125.35 118.128C124.897 117.675 124.643 117.061 124.642 116.42V95.605C124.643 94.9645 124.897 94.3504 125.35 93.8974C125.803 93.4445 126.416 93.1897 127.056 93.189H151.076C151.717 93.1897 152.33 93.4445 152.783 93.8974C153.235 94.3504 153.49 94.9645 153.491 95.605V116.42C153.49 117.061 153.235 117.675 152.783 118.128C152.33 118.581 151.717 118.836 151.076 118.836Z" fill="#F2F2F2"/>
<path d="M151.076 145.227H127.056C126.416 145.226 125.803 144.971 125.35 144.518C124.897 144.065 124.643 143.451 124.642 142.811V121.996C124.643 121.355 124.897 120.741 125.35 120.288C125.803 119.835 126.416 119.58 127.056 119.58H151.076C151.717 119.58 152.33 119.835 152.783 120.288C153.235 120.741 153.49 121.355 153.491 121.996V142.811C153.49 143.451 153.235 144.065 152.783 144.518C152.33 144.971 151.717 145.226 151.076 145.227Z" fill="#F2F2F2"/>
<path d="M121.485 118.836H97.465C96.8249 118.836 96.2112 118.581 95.7586 118.128C95.3059 117.675 95.0513 117.061 95.0506 116.42V95.605C95.0513 94.9645 95.3059 94.3504 95.7586 93.8974C96.2112 93.4445 96.8249 93.1897 97.465 93.189H121.485C122.125 93.1897 122.739 93.4445 123.191 93.8974C123.644 94.3504 123.898 94.9645 123.899 95.605V116.42C123.898 117.061 123.644 117.675 123.191 118.128C122.739 118.581 122.125 118.836 121.485 118.836Z" fill="#F2F2F2"/>
<path d="M198.302 61.8881H116.809C114.964 61.8853 113.195 60.9363 111.891 59.2491C110.587 57.5619 109.853 55.2744 109.851 52.8883V29.6291C109.853 27.2431 110.587 24.9556 111.891 23.2684C113.195 21.5812 114.964 20.6321 116.809 20.6294H198.302C200.147 20.6321 201.916 21.5812 203.22 23.2684C204.525 24.9556 205.258 27.2431 205.261 29.6291V52.8883C205.258 55.2744 204.525 57.5619 203.22 59.2491C201.916 60.9363 200.147 61.8853 198.302 61.8881Z" fill="white"/>
<path d="M171.062 54.8254H153.532C153.151 54.8254 152.786 54.6296 152.516 54.2811C152.247 53.9325 152.095 53.4598 152.095 52.9669C152.095 52.474 152.247 52.0013 152.516 51.6527C152.786 51.3042 153.151 51.1084 153.532 51.1084H171.062C171.444 51.1084 171.809 51.3042 172.079 51.6527C172.348 52.0013 172.499 52.474 172.499 52.9669C172.499 53.4598 172.348 53.9325 172.079 54.2811C171.809 54.6296 171.444 54.8254 171.062 54.8254Z" fill="#C5E6EF"/>
<path d="M195.202 55.0114H177.672C177.291 55.0114 176.926 54.8156 176.656 54.4671C176.387 54.1186 176.235 53.6458 176.235 53.1529C176.235 52.66 176.387 52.1873 176.656 51.8388C176.926 51.4902 177.291 51.2944 177.672 51.2944H195.202C195.583 51.2944 195.949 51.4902 196.218 51.8388C196.488 52.1873 196.639 52.66 196.639 53.1529C196.639 53.6458 196.488 54.1186 196.218 54.4671C195.949 54.8156 195.583 55.0114 195.202 55.0114Z" fill="#C5E6EF"/>
<path d="M146.348 55.0114H128.818C128.437 55.0114 128.071 54.8156 127.802 54.4671C127.532 54.1186 127.381 53.6458 127.381 53.1529C127.381 52.66 127.532 52.1873 127.802 51.8388C128.071 51.4902 128.437 51.2944 128.818 51.2944H146.348C146.729 51.2944 147.094 51.4902 147.364 51.8388C147.633 52.1873 147.785 52.66 147.785 53.1529C147.785 53.6458 147.633 54.1186 147.364 54.4671C147.094 54.8156 146.729 55.0114 146.348 55.0114Z" fill="#C5E6EF"/>
<path d="M175.908 115.227C177.139 115.227 178.136 114.229 178.136 112.997C178.136 111.765 177.139 110.767 175.908 110.767C174.677 110.767 173.679 111.765 173.679 112.997C173.679 114.229 174.677 115.227 175.908 115.227Z" fill="#C5E6EF"/>
<path d="M177.022 141.989C178.253 141.989 179.251 140.991 179.251 139.759C179.251 138.527 178.253 137.529 177.022 137.529C175.791 137.529 174.794 138.527 174.794 139.759C174.794 140.991 175.791 141.989 177.022 141.989Z" fill="#C5E6EF"/>
<path d="M212.681 115.227C213.912 115.227 214.909 114.229 214.909 112.997C214.909 111.765 213.912 110.767 212.681 110.767C211.45 110.767 210.452 111.765 210.452 112.997C210.452 114.229 211.45 115.227 212.681 115.227Z" fill="#C5E6EF"/>
<path d="M0.500063 191.558C0.49989 191.616 0.511202 191.673 0.533355 191.727C0.555509 191.781 0.588059 191.83 0.62914 191.871C0.670222 191.912 0.71903 191.944 0.772738 191.967C0.826447 191.989 0.884005 192 0.942102 192H235.058C235.175 192 235.288 191.953 235.371 191.87C235.454 191.787 235.5 191.675 235.5 191.558C235.5 191.44 235.454 191.328 235.371 191.245C235.288 191.162 235.175 191.115 235.058 191.115H0.942079C0.883985 191.115 0.826421 191.126 0.772716 191.149C0.719011 191.171 0.670219 191.203 0.62914 191.244C0.588061 191.286 0.555508 191.334 0.533355 191.388C0.511203 191.442 0.499892 191.499 0.500063 191.558Z" fill="#CCCCCC"/>
<path d="M33.5527 186.973C39.2669 191.097 46.6721 191.304 53.8301 190.797C54.8296 190.727 55.822 190.644 56.8053 190.554C56.8112 190.553 56.819 190.553 56.8251 190.552C56.8723 190.547 56.9197 190.543 56.9649 190.54C57.1678 190.521 57.3708 190.502 57.5719 190.483L57.5244 190.574L57.3753 190.856C57.4289 190.761 57.4824 190.669 57.536 190.575C57.5518 190.546 57.5694 190.518 57.5851 190.49C59.4394 187.257 61.2785 183.905 61.7477 180.213C62.2326 176.381 60.8698 172.043 57.5038 170.159C57.0623 169.913 56.5948 169.717 56.11 169.574C55.9086 169.513 55.7046 169.463 55.4983 169.419C54.2359 169.138 52.9216 169.2 51.6906 169.596C50.4595 169.993 49.3562 170.711 48.494 171.677C47.6318 172.642 47.0419 173.821 46.7849 175.091C46.5279 176.36 46.6131 177.676 47.0317 178.902C44.1779 175.97 44.7103 171.213 45.6947 167.238C46.681 163.263 47.875 158.84 45.8689 155.27C44.7538 153.283 42.7927 152.05 40.592 151.553C40.5244 151.538 40.457 151.524 40.3894 151.511C37.7672 150.979 35.0412 151.458 32.7558 152.851C28.5477 155.508 26.3864 160.546 25.6849 165.48C24.5547 173.421 27.0559 182.283 33.5527 186.973Z" fill="#F1F1F1"/>
<path d="M35.3976 174.243C35.5635 175.995 35.9834 177.713 36.6441 179.343C37.2531 180.785 38.0738 182.129 39.0792 183.328C41.133 185.803 43.8486 187.664 46.7979 188.904C49.053 189.83 51.4158 190.466 53.8301 190.797C54.8296 190.727 55.822 190.644 56.8053 190.554C56.8112 190.553 56.819 190.553 56.825 190.552C56.8723 190.547 56.9196 190.543 56.9649 190.54C57.1678 190.521 57.3708 190.502 57.5719 190.483L57.5244 190.574L57.3753 190.855C57.4289 190.761 57.4824 190.669 57.536 190.575C57.5517 190.546 57.5694 190.518 57.5851 190.49C55.7751 188.683 54.4237 186.468 53.6442 184.03C52.8646 181.592 52.6796 179.003 53.1047 176.478C53.5495 173.972 54.5792 171.606 56.1099 169.574C55.9086 169.513 55.7046 169.463 55.4983 169.419C54.9165 170.216 54.4062 171.063 53.9734 171.95C52.4201 175.113 51.9246 178.693 52.5601 182.16C53.1509 185.297 54.6229 188.2 56.8032 190.529C56.6122 190.515 56.4195 190.5 56.2308 190.482C52.6578 190.179 49.092 189.409 45.8513 187.833C43.0811 186.518 40.6762 184.541 38.8482 182.076C36.8855 179.364 36.0206 176.102 35.872 172.786C35.7145 169.236 36.1742 165.624 36.9827 162.172C37.8083 158.634 39.063 155.209 40.7189 151.976C40.7559 151.902 40.7634 151.818 40.7398 151.739C40.7161 151.66 40.6632 151.594 40.5919 151.553C40.5325 151.513 40.4597 151.498 40.3894 151.511C40.3549 151.52 40.323 151.537 40.2959 151.56C40.2689 151.583 40.2474 151.613 40.2331 151.645C40.0288 152.045 39.8284 152.444 39.6355 152.849C38.0294 156.215 36.8469 159.769 36.1153 163.427C35.405 166.957 35.0259 170.649 35.3976 174.243Z" fill="white"/>
</g>
<defs>
<clipPath id="clip0_20_8129">
<rect width="235" height="192" fill="white" transform="translate(0.500061)"/>
</clipPath>
</defs>
</svg>
