<svg width="314" height="264" viewBox="0 0 314 264" fill="none" xmlns="http://www.w3.org/2000/svg">
<g clip-path="url(#clip0_20_7310)">
<rect width="314" height="264" fill="white"/>
<path d="M83.6327 160.494C82.7873 160.494 81.9333 160.481 81.095 160.454L81.1141 159.845C82.3177 159.882 83.5461 159.893 84.7555 159.876L84.7638 160.486C84.3873 160.491 84.0103 160.494 83.6327 160.494ZM88.4305 160.353L88.3948 159.743C89.6002 159.672 90.8212 159.572 92.0237 159.446L92.0873 160.053C90.8756 160.18 89.6455 160.281 88.4305 160.353V160.353ZM77.4316 160.257C76.216 160.164 74.9876 160.042 73.7804 159.894L73.8548 159.288C75.0528 159.435 76.2717 159.557 77.478 159.649L77.4316 160.257ZM95.7263 159.586L95.635 158.983C96.8327 158.801 98.0397 158.59 99.2213 158.355L99.34 158.953C98.1492 159.19 96.9333 159.403 95.7263 159.586V159.586ZM70.1502 159.363C68.9493 159.159 67.7371 158.925 66.5475 158.667L66.6767 158.07C67.8574 158.327 69.0601 158.559 70.2519 158.761L70.1502 159.363ZM102.922 158.154L102.775 157.562C103.951 157.271 105.133 156.949 106.289 156.606L106.462 157.191C105.297 157.537 104.106 157.861 102.922 158.154V158.154ZM62.9809 157.805C61.8029 157.491 60.6176 157.146 59.4576 156.778L59.6412 156.197C60.7924 156.561 61.9687 156.903 63.1374 157.215L62.9809 157.805ZM109.955 156.065L109.755 155.489C110.896 155.092 112.043 154.662 113.166 154.212L113.392 154.779C112.261 155.232 111.105 155.665 109.955 156.065H109.955ZM55.9763 155.587C54.8323 155.166 53.6812 154.712 52.5551 154.237L52.7917 153.674C53.9091 154.145 55.0513 154.596 56.1867 155.014L55.9763 155.587ZM116.759 153.339L116.507 152.783C117.602 152.285 118.704 151.753 119.78 151.202L120.057 151.745C118.973 152.3 117.863 152.836 116.759 153.339H116.759ZM123.279 150.001L122.978 149.472C124.028 148.871 125.077 148.24 126.095 147.595L126.42 148.111C125.395 148.761 124.339 149.397 123.279 150.001H123.279ZM129.472 146.078L129.123 145.578C130.113 144.886 131.1 144.161 132.058 143.424L132.429 143.908C131.464 144.651 130.469 145.381 129.472 146.078ZM36.5876 145.219C35.604 144.503 34.6214 143.754 33.6669 142.991L34.0472 142.514C34.9943 143.271 35.9695 144.015 36.9455 144.725L36.5876 145.219ZM135.285 141.604L134.893 141.138C135.815 140.359 136.732 139.547 137.621 138.724L138.034 139.172C137.139 140.001 136.215 140.819 135.285 141.604H135.285ZM30.8513 140.633C29.9352 139.829 29.0251 138.994 28.1464 138.149L28.5683 137.709C29.4405 138.547 30.3436 139.376 31.2527 140.174L30.8513 140.633ZM140.67 136.617L140.237 136.188C141.087 135.326 141.928 134.433 142.736 133.535L143.188 133.943C142.374 134.848 141.527 135.748 140.67 136.617ZM25.5577 135.545C24.7173 134.66 23.8872 133.746 23.0906 132.827L23.5509 132.427C24.3414 133.339 25.1651 134.246 25.9993 135.125L25.5577 135.545ZM145.582 131.158L145.112 130.77C145.88 129.834 146.636 128.869 147.36 127.899L147.848 128.265C147.119 129.241 146.356 130.215 145.582 131.158L145.582 131.158ZM20.75 129.999C19.9953 129.044 19.2521 128.058 18.541 127.069L19.0356 126.712C19.7412 127.694 20.4788 128.673 21.2279 129.621L20.75 129.999ZM149.979 125.271L149.475 124.928C150.155 123.926 150.82 122.895 151.453 121.862L151.973 122.182C151.335 123.222 150.664 124.261 149.979 125.271L149.979 125.271ZM16.4684 124.041C15.8044 123.022 15.1545 121.973 14.5366 120.923L15.0615 120.613C15.6748 121.655 16.3198 122.696 16.9788 123.707L16.4684 124.041ZM153.823 119.003L153.29 118.708C153.875 117.648 154.443 116.559 154.98 115.472L155.526 115.743C154.986 116.838 154.413 117.935 153.823 119.003V119.003ZM157.078 112.406L156.519 112.161C157.005 111.051 157.471 109.914 157.906 108.781L158.475 109C158.037 110.141 157.567 111.287 157.078 112.406V112.406ZM9.6259 111.09C9.15872 109.967 8.71132 108.818 8.2962 107.675L8.86903 107.467C9.28087 108.601 9.72485 109.741 10.1883 110.855L9.6259 111.09ZM159.713 105.532L159.135 105.34C159.515 104.192 159.874 103.019 160.201 101.853L160.788 102.019C160.458 103.193 160.096 104.375 159.713 105.532ZM7.12228 104.194C6.75969 103.031 6.41897 101.843 6.10964 100.663L6.69913 100.508C7.00608 101.679 7.34427 102.858 7.70403 104.013L7.12228 104.194ZM161.699 98.4595L161.106 98.3213C161.379 97.1452 161.628 95.9441 161.847 94.7519L162.446 94.8621C162.226 96.0639 161.974 97.2739 161.699 98.4596V98.4595ZM5.26098 97.0883C5.00685 95.8964 4.77683 94.6822 4.57745 93.4787L5.17855 93.3786C5.37659 94.5731 5.60482 95.7781 5.85702 96.9608L5.26098 97.0883ZM163.027 91.235L162.423 91.1521C162.587 89.957 162.726 88.7383 162.835 87.5297L163.442 87.5845C163.332 88.8026 163.192 90.0306 163.027 91.235V91.235ZM4.05998 89.8416C3.91625 88.6337 3.79826 87.4033 3.70914 86.1849L4.31708 86.1403C4.40531 87.3497 4.52256 88.5705 4.66524 89.7695L4.05998 89.8416ZM163.69 83.9195L163.081 83.8921C163.135 82.6829 163.163 81.4565 163.163 80.247H163.772C163.772 81.4657 163.745 82.7014 163.69 83.9195ZM3.5245 82.5155C3.50367 81.7673 3.49311 81.0039 3.49295 80.247C3.49295 79.7774 3.49697 79.3087 3.505 78.8409L4.11443 78.8516C4.1064 79.3159 4.10238 79.781 4.10238 80.247C4.10253 80.9982 4.11309 81.7559 4.13362 82.4988L3.5245 82.5155ZM4.25905 75.2085L3.65081 75.1703C3.72684 73.951 3.83189 72.7195 3.96267 71.5099L4.56853 71.5756C4.43864 72.7761 4.33463 73.9983 4.25904 75.2085H4.25905ZM162.77 71.4855C162.648 70.2825 162.48 69.6959 162.304 68.498L162.907 68.4089C163.084 69.6159 163.237 70.5372 163.36 71.7493L162.77 71.4855ZM5.04299 67.9609L4.44071 67.8677C4.62743 66.6605 4.84437 65.4437 5.08555 64.2508L5.68279 64.3717C5.44353 65.5556 5.22823 66.7631 5.04299 67.9609ZM161.689 64.905C161.456 63.7146 161.194 62.5163 160.909 61.3435L161.501 61.1993C161.788 62.381 162.053 63.5885 162.287 64.7879L161.689 64.905ZM6.48652 60.8159L5.89539 60.6675C6.19133 59.4856 6.5191 58.2939 6.86964 57.1252L7.45317 57.3007C7.10547 58.4604 6.78022 59.6431 6.48652 60.8159ZM159.966 57.8216C159.626 56.6597 159.255 55.4909 158.863 54.3473L159.439 54.1488C159.834 55.3012 160.209 56.4792 160.551 57.65L159.966 57.8216ZM8.5844 53.8245L8.00949 53.6222C8.41449 52.4686 8.85177 51.3095 9.30914 50.177L9.87423 50.4059C9.42028 51.5295 8.98627 52.6798 8.5844 53.8245V53.8245ZM157.6 50.9275C157.155 49.8044 156.679 48.6773 156.184 47.5774L156.74 47.3268C157.239 48.4352 157.718 49.571 158.166 50.7025L157.6 50.9275ZM11.3197 47.0516L10.7659 46.7968C11.2749 45.6869 11.8166 44.5738 12.3761 43.4886L12.9177 43.7684C12.3624 44.8454 11.8248 45.95 11.3197 47.0516ZM154.617 44.2946C154.072 43.2173 153.494 42.1378 152.899 41.0864L153.43 40.7857C154.029 41.8453 154.611 42.9331 155.16 44.0187L154.617 44.2946ZM14.6645 40.5632L14.1364 40.2586C14.7443 39.2016 15.3854 38.1435 16.042 37.114L16.5556 37.4424C15.9041 38.4641 15.2677 39.5141 14.6645 40.5632V40.5632ZM151.037 37.9589C150.393 36.9324 149.718 35.9097 149.033 34.9193L149.533 34.5716C150.224 35.5696 150.904 36.6 151.553 37.6344L151.037 37.9589ZM18.5871 34.4123L18.089 34.0607C18.7916 33.0629 19.5261 32.0685 20.2727 31.1048L20.7542 31.4788C20.0134 32.4353 19.2842 33.4222 18.5871 34.4123ZM146.891 31.9737C146.157 31.0105 145.392 30.053 144.617 29.1278L145.085 28.7358C145.865 29.6682 146.636 30.6328 147.376 31.6033L146.891 31.9737ZM23.0522 28.6482L22.5883 28.2525C23.3767 27.3252 24.1985 26.4023 25.0306 25.5092L25.4761 25.9255C24.6503 26.8118 23.8348 27.7279 23.0522 28.6482ZM142.217 26.3878C141.398 25.4955 140.549 24.6112 139.693 23.7596L140.123 23.3266C140.985 24.1849 141.841 25.0758 142.665 25.9748L142.217 26.3878ZM28.0205 23.3171L27.5944 22.8808C28.4658 22.0272 29.3676 21.1831 30.2744 20.3724L30.6803 20.8277C29.7803 21.6322 28.8854 22.4698 28.0205 23.3171ZM137.053 21.2484C136.155 20.4336 135.229 19.63 134.299 18.8599L134.688 18.3897C135.625 19.1656 136.558 19.9753 137.462 20.7964L137.053 21.2484ZM33.45 18.4621L33.0652 17.9889C34.0078 17.2203 34.9819 16.4623 35.9606 15.7358L36.3237 16.226C35.3522 16.9471 34.3854 17.6993 33.45 18.4621ZM39.295 14.1241L38.9549 13.6178C39.9637 12.9382 41.0022 12.2726 42.0418 11.6393L42.3584 12.1608C41.3269 12.7892 40.2962 13.4498 39.295 14.1241ZM45.5075 10.3402L45.2149 9.8047C46.2822 9.21994 47.3765 8.6526 48.4674 8.11819L48.7352 8.66645C47.6527 9.1967 46.5667 9.75971 45.5075 10.3402ZM119.056 8.92629C117.972 8.3853 116.861 7.86268 115.755 7.37297L116.001 6.81487C117.116 7.3083 118.236 7.83497 119.328 8.38011L119.056 8.92629ZM52.035 7.14308L51.7928 6.58318C52.9081 6.09913 54.049 5.63489 55.1836 5.20328L55.4 5.77389C54.2739 6.20209 53.1418 6.66275 52.035 7.14308ZM112.384 5.97309C111.256 5.53494 110.101 5.11687 108.951 4.7307L109.145 4.15204C110.303 4.54134 111.467 4.96252 112.604 5.40426L112.384 5.97309ZM58.8327 4.55834L58.6429 3.97849C59.8011 3.59827 60.9827 3.24026 62.1549 2.91473L62.3178 3.50263C61.1545 3.82578 59.982 4.18096 58.8327 4.55834ZM105.473 3.65101C104.311 3.31922 103.125 3.01023 101.95 2.73267L102.09 2.13882C103.275 2.41846 104.469 2.72984 105.641 3.06401L105.473 3.65101ZM65.8479 2.60886L65.7122 2.01397C66.8995 1.74236 68.109 1.4949 69.3068 1.27857L69.4152 1.87899C68.2262 2.09382 67.0261 2.33935 65.8479 2.60886ZM98.3875 1.97821C97.2008 1.75518 95.9921 1.55673 94.7946 1.38838L94.8792 0.784093C96.0858 0.953787 97.3041 1.15372 98.5 1.37839L98.3875 1.97821ZM73.0123 1.31419L72.9317 0.709308C74.1381 0.548106 75.365 0.412528 76.5782 0.306751L76.6311 0.914609C75.4272 1.01979 74.2098 1.15417 73.0123 1.31419ZM91.1783 0.964072C89.9778 0.850844 88.756 0.76354 87.5464 0.704987L87.5761 0.0953535C88.7947 0.154501 90.0258 0.242404 91.2354 0.356538L91.1783 0.964072ZM80.2651 0.680553L80.2395 0.0709193C81.3595 0.024138 82.501 0.000299019 83.6327 0L83.9085 0.000448702L83.9068 0.610692L83.6327 0.610244C82.5097 0.610524 81.3765 0.634214 80.2651 0.680547V0.680553Z" fill="#3F3D56"/>
<path d="M181.683 28.7442V226.524C181.681 228.88 180.745 231.139 179.08 232.804C177.416 234.47 175.16 235.405 172.807 235.406H92.6213C91.4555 235.408 90.3009 235.18 89.2234 234.734C88.146 234.289 87.1669 233.635 86.3424 232.81C85.5178 231.985 84.8639 231.005 84.4182 229.926C83.9725 228.847 83.7437 227.691 83.7449 226.524V28.7442C83.7448 27.5769 83.9744 26.4211 84.4204 25.3427C84.8665 24.2643 85.5203 23.2844 86.3445 22.459C87.1688 21.6337 88.1474 20.979 89.2243 20.5323C90.3013 20.0857 91.4556 19.8559 92.6213 19.856H104.621V21.3968C104.621 23.3377 105.39 25.1992 106.761 26.5719C108.131 27.9446 109.99 28.7161 111.928 28.7167H152.711C154.271 28.72 155.791 28.2192 157.044 27.2887C157.297 27.1042 157.538 26.9023 157.763 26.6846C158.477 26.002 159.045 25.1814 159.432 24.2724C159.82 23.3635 160.019 22.3852 160.018 21.3968V19.856H172.807C173.972 19.8556 175.127 20.0853 176.204 20.5318C177.281 20.9784 178.26 21.633 179.084 22.4585C179.908 23.2839 180.562 24.2638 181.008 25.3424C181.454 26.4209 181.683 27.5768 181.683 28.7442V28.7442Z" fill="#3F3D56"/>
<path d="M169.96 91.1541H95.4681V147.907H169.96V91.1541Z" fill="#C5E6EF"/>
<path d="M56.2415 81.5916C62.8739 81.7341 68.1498 86.5468 68.1498 86.5468C68.1498 86.5468 62.6726 91.1286 56.0403 90.9861C49.4079 90.8437 44.132 86.031 44.132 86.031C44.132 86.031 49.6092 81.4492 56.2415 81.5916Z" fill="#C5E6EF"/>
<path d="M22.8975 58.9217C28.8895 61.7722 35.7605 59.8392 35.7605 59.8392C35.7605 59.8392 32.9164 53.2847 26.9244 50.4342C20.9324 47.5837 14.0614 49.5166 14.0614 49.5166C14.0614 49.5166 16.9055 56.0712 22.8975 58.9217Z" fill="#C5E6EF"/>
<path d="M23.5066 56.089C30.1129 55.4844 35.8955 59.6732 35.8955 59.6732C35.8955 59.6732 30.967 64.8421 24.3606 65.4466C17.7543 66.0512 11.9718 61.8624 11.9718 61.8624C11.9718 61.8624 16.9003 56.6935 23.5066 56.089Z" fill="#3F3D56"/>
<path d="M47.7234 57.2343C47.0902 63.8468 51.2475 69.6557 51.2475 69.6557C51.2475 69.6557 56.4314 64.7437 57.0647 58.1313C57.6979 51.5188 53.5405 45.71 53.5405 45.71C53.5405 45.71 48.3566 50.6219 47.7234 57.2343Z" fill="#3F3D56"/>
<path d="M78.836 97.7881C75.3709 103.453 76.5631 110.499 76.5631 110.499C76.5631 110.499 83.3732 108.361 86.8382 102.696C90.3033 97.0317 89.1111 89.9856 89.1111 89.9856C89.1111 89.9856 82.301 92.1236 78.836 97.7881Z" fill="#3F3D56"/>
<path d="M68.7834 159.376L69.2884 159.035C67.5084 156.448 66.5366 153.39 66.4963 150.249C66.5104 145.655 68.7641 141.406 70.9436 137.296C71.3482 136.533 71.7514 135.773 72.1393 135.013C73.7674 131.914 75.065 128.653 76.0104 125.282C79.3911 112.702 76.0626 97.8594 67.1069 85.5787C60.0023 75.8366 49.4116 67.3176 34.7298 59.5349L34.4447 60.0742C49.0429 67.8125 59.5658 76.273 66.6147 85.9387C75.4627 98.0714 78.755 112.72 75.4218 125.123C74.4874 128.453 73.2053 131.675 71.5968 134.735C71.2101 135.492 70.8084 136.25 70.4053 137.01C68.1911 141.185 65.9014 145.502 65.8868 150.248C65.9271 153.511 66.9353 156.688 68.7834 159.376V159.376Z" fill="#3F3D56"/>
<path d="M5.78973 60.3368C8.98722 60.3368 11.5793 57.7413 11.5793 54.5395C11.5793 51.3377 8.98722 48.7422 5.78973 48.7422C2.59224 48.7422 0.000167847 51.3377 0.000167847 54.5395C0.000167847 57.7413 2.59224 60.3368 5.78973 60.3368Z" fill="#3F3D56"/>
<path d="M87.289 148.643L50.9461 145.611V92.2364L87.289 90.417V148.643Z" fill="#C5E6EF"/>
<path d="M178.139 148.643L214.482 145.611V92.2364L178.139 90.417V148.643Z" fill="#C5E6EF"/>
<path d="M145.347 112.456C144.266 111.52 142.933 110.925 141.515 110.745C140.098 110.564 138.659 110.807 137.379 111.441C136.266 111.98 135.07 112.323 133.842 112.454C133.811 109.79 134.299 107.146 135.279 104.669L135.44 104.254H133.304L133.243 104.478C133.005 105.354 132.817 106.243 132.681 107.14C132.566 106.751 132.416 106.373 132.234 106.011C130.736 103.036 127.274 101.819 127.128 101.769L126.832 101.668L126.738 101.966C126.692 102.114 125.611 105.624 127.109 108.599C128.181 110.729 130.26 111.957 131.409 112.501C129.955 112.408 128.535 112.027 127.229 111.382C126.414 110.962 125.498 110.78 124.585 110.857C123.672 110.934 122.8 111.267 122.067 111.818C118.079 114.853 115.792 119.301 115.792 124.023C115.792 130.225 119.803 135.906 126.011 138.494C126.571 138.726 127.172 138.846 127.778 138.845C128.62 138.845 129.446 138.618 130.17 138.188C131.133 137.628 132.226 137.331 133.339 137.329C134.452 137.327 135.547 137.619 136.511 138.175C137.135 138.544 137.835 138.762 138.558 138.813C139.28 138.864 140.004 138.746 140.674 138.469C146.846 135.87 150.834 130.2 150.834 124.023C150.834 119.601 148.885 115.493 145.347 112.456ZM133.77 104.864H134.555C133.673 107.23 133.223 109.735 133.227 112.26H133.087C132.899 109.774 133.129 107.273 133.77 104.864V104.864ZM127.653 108.324C126.516 106.066 127.014 103.375 127.235 102.466C128.095 102.828 130.551 104.023 131.69 106.285C132.827 108.543 132.329 111.234 132.108 112.143C131.248 111.78 128.79 110.582 127.653 108.324V108.324ZM140.437 137.906C139.856 138.147 139.226 138.249 138.598 138.204C137.971 138.16 137.362 137.97 136.82 137.649C135.761 137.037 134.56 136.716 133.338 136.719C132.115 136.721 130.915 137.047 129.859 137.664C129.319 137.986 128.711 138.177 128.084 138.224C127.457 138.27 126.827 138.17 126.245 137.931C120.265 135.437 116.401 129.978 116.401 124.023C116.401 119.494 118.601 115.222 122.436 112.304C123.172 111.747 124.069 111.447 124.991 111.45C125.672 111.449 126.344 111.612 126.949 111.924C128.618 112.722 130.443 113.141 132.292 113.152C134.142 113.163 135.971 112.765 137.65 111.988C138.823 111.406 140.141 111.185 141.44 111.35C142.739 111.516 143.96 112.062 144.95 112.919C148.351 115.839 150.224 119.782 150.224 124.023C150.224 129.954 146.383 135.403 140.437 137.906V137.906Z" fill="white"/>
<path d="M69.018 106.689V105.973H69.3023V103.741C69.3034 103.575 69.2591 103.413 69.1741 103.271C69.0892 103.129 68.9669 103.013 68.8207 102.936C67.563 102.279 66.2115 102.28 64.8035 102.939C64.6481 103.013 64.5168 103.13 64.425 103.276C64.3332 103.421 64.2846 103.59 64.2848 103.762V105.973H64.5692V106.621C63.5226 106.915 62.6012 107.544 61.9462 108.413C61.2912 109.281 60.9388 110.341 60.9431 111.429V116.258L61.4847 116.439L60.9431 116.8V118.251L61.4847 118.432L60.9431 118.794V120.245L61.4847 120.426L60.9431 120.787V131.84C60.9441 132.702 61.2865 133.528 61.8953 134.138C62.504 134.747 63.3294 135.09 64.1904 135.091H68.9775C69.8365 135.09 70.6601 134.748 71.2675 134.14C71.8749 133.532 72.2165 132.707 72.2175 131.847V120.787L71.6759 120.426L72.2175 120.245V118.794L71.6759 118.432L72.2175 118.251V116.8L71.6759 116.439L72.2175 116.258V111.18C72.2139 110.192 71.9042 109.229 71.3311 108.425C70.7581 107.62 69.9499 107.014 69.018 106.689V106.689ZM65.0615 103.492C66.3061 102.91 67.4437 102.905 68.5386 103.477C68.5857 103.503 68.6249 103.541 68.6521 103.588C68.6793 103.634 68.6934 103.687 68.6929 103.741V104.935H64.8943V103.762C64.8937 103.706 64.9092 103.651 64.9388 103.603C64.9684 103.555 65.0109 103.517 65.0615 103.492V103.492ZM71.6081 115.818L70.3011 116.254L71.6081 117.127V117.812L70.3011 118.248L71.6081 119.12V119.805L70.3011 120.241L71.6081 121.114V131.847C71.6073 132.545 71.3299 133.215 70.8367 133.709C70.3436 134.203 69.675 134.48 68.9775 134.481H64.1904C63.491 134.48 62.8205 134.202 62.326 133.707C61.8315 133.211 61.5533 132.54 61.5525 131.84V121.114L62.8595 120.241L61.5525 119.805V119.12L62.8595 118.248L61.5525 117.812V117.127L62.8595 116.254L61.5525 115.818V111.429C61.5487 110.437 61.8823 109.473 62.4985 108.696C63.1147 107.919 63.9767 107.376 64.9426 107.155L65.1786 107.1V105.973H68.4086V107.141L68.6283 107.205C69.4862 107.458 70.2395 107.982 70.7764 108.698C71.3132 109.414 71.6049 110.284 71.6081 111.18V115.818Z" fill="white"/>
<path d="M212.253 115.046L210.719 114.739L211.08 114.015L210.376 113.874L210.498 113.141L209.729 113.013V112.318L209.106 112.14L209.698 111.399H208.671L208.886 110.863L208.126 110.736L208.384 109.832H207.562V108.988H207.258C206.298 108.988 205.762 110.13 205.586 110.587C200.287 111.512 184.899 122.185 183.143 123.412C182.413 123.175 181.331 123.731 181.105 123.854L180.747 124.05L181.263 124.566L181.109 125.028L182.056 125.383L181.849 125.903L182.445 126.4L181.909 126.803L182.716 127.287L182.574 127.995L183.474 128.124V128.833L183.997 128.938L183.737 129.853H184.317V130.576H184.884L185.14 131.347L185.404 131.294C186.017 131.171 186.542 130.322 186.747 129.945C191.851 129.033 207.609 117.932 209.143 116.844C210.934 117.059 211.592 116.58 211.662 116.524L211.953 116.29L211.258 115.71L212.253 115.046ZM209.104 116.224L208.985 116.208L208.887 116.278C208.713 116.402 191.432 128.661 186.505 129.366L186.347 129.389L186.276 129.532C186.087 129.917 185.832 130.267 185.522 130.564L185.323 129.966H184.927V129.242H184.544L184.765 128.47L184.084 128.333V127.595L183.298 127.483L183.398 126.985L183 126.746L183.427 126.425L182.579 125.718L182.853 125.031L181.873 124.663L181.961 124.402L181.771 124.212C182.229 124.021 182.783 123.88 183.02 124.022L183.19 124.124L183.352 124.01C183.525 123.889 200.689 111.868 205.854 111.162L206.047 111.136L206.104 110.95C206.193 110.661 206.508 109.933 206.953 109.683V110.442H207.576L207.352 111.226L208.038 111.34L207.771 112.009H208.43L208.058 112.474L209.12 112.778V113.53L209.797 113.643L209.678 114.357L210.178 114.457L209.817 115.18L210.691 115.355L210.241 115.655L210.888 116.195C210.3 116.315 209.695 116.325 209.104 116.224V116.224Z" fill="white"/>
<path d="M132.714 173.842C137.594 173.842 141.551 169.88 141.551 164.994C141.551 160.107 137.594 156.145 132.714 156.145C127.834 156.145 123.877 160.107 123.877 164.994C123.877 169.88 127.834 173.842 132.714 173.842Z" fill="#C5E6EF"/>
<path d="M138.278 164.119H133.587V159.422H131.841V164.119H127.15V165.867H131.841V170.565H133.587V165.867H138.278V164.119Z" fill="white"/>
<path d="M160.585 165.298L156.014 163.163V164.383H145.349V166.214H156.014V167.434L160.585 165.298Z" fill="white"/>
<path d="M104.844 165.298L109.414 163.163V164.383H120.079V166.214H109.414V167.434L104.844 165.298Z" fill="white"/>
<path d="M244.392 235.477H21.0364V236.087H244.392V235.477Z" fill="#3F3D56"/>
<path d="M161.966 48.7419H103.462V49.3522H161.966V48.7419Z" fill="white"/>
<path d="M162.108 215.339H103.603V215.949H162.108V215.339Z" fill="white"/>
<path d="M256.112 155.077L254.589 160.874C254.589 160.874 249.104 173.079 254.589 173.689C260.074 174.3 260.378 157.823 260.378 157.823L256.112 155.077Z" fill="#A0616A"/>
<path d="M265.559 113.275L254.589 156.603C254.589 156.603 258.855 157.823 260.988 159.349L265.559 113.275Z" fill="#D0CDE1"/>
<path d="M299.991 146.228L303.038 193.522C303.038 193.522 310.351 212.135 310.047 229.832C310.047 229.832 307.304 236.85 309.437 238.07C311.57 239.291 312.789 240.206 311.57 241.121C310.351 242.037 309.437 244.173 310.351 244.783C311.266 245.393 311.57 246.308 311.266 246.308H302.124C302.124 246.308 303.952 241.732 301.21 240.511C298.468 239.291 299.991 236.239 299.991 236.239L279.575 176.436L263.425 231.357C263.425 231.357 266.168 233.188 264.035 234.104C261.902 235.019 260.988 233.188 261.902 235.019C262.816 236.85 261.597 237.765 261.597 238.07C261.597 238.375 252.456 237.155 252.456 237.155C252.456 237.155 257.026 233.188 254.894 232.273C252.761 231.357 251.846 230.442 252.456 229.832C253.065 229.222 255.503 223.424 255.503 223.424C255.503 223.424 256.722 201.456 257.026 200.54C257.331 199.625 257.026 195.353 257.026 193.217C257.026 191.081 256.722 182.538 257.636 180.402C258.55 178.266 259.464 152.026 264.34 148.975C269.215 145.923 299.991 146.228 299.991 146.228Z" fill="#2F2E41"/>
<path d="M261.293 236.544C261.293 236.544 267.387 249.054 263.121 250.58C258.855 252.106 253.37 250.885 252.151 252.716C250.932 254.547 237.525 256.682 237.22 252.106C236.915 247.529 251.846 238.985 251.846 238.985L253.791 235.849L261.293 236.544Z" fill="#2F2E41"/>
<path d="M310.656 245.698C310.656 245.698 316.75 258.208 312.484 259.734C308.218 261.259 302.734 260.039 301.515 261.869C300.296 263.7 286.888 265.836 286.584 261.259C286.279 256.682 301.21 248.139 301.21 248.139L303.155 245.003L310.656 245.698Z" fill="#2F2E41"/>
<path d="M282.47 88.713C288.024 88.713 292.526 84.2049 292.526 78.644C292.526 73.083 288.024 68.575 282.47 68.575C276.917 68.575 272.415 73.083 272.415 78.644C272.415 84.2049 276.917 88.713 282.47 88.713Z" fill="#A0616A"/>
<path d="M289.326 83.9834L288.107 92.8319L278.966 99.8497L276.528 96.4934V84.8988L289.326 83.9834Z" fill="#A0616A"/>
<path d="M275.005 95.273C275.005 95.273 284.451 96.1884 289.326 92.832L299.077 150.5C299.077 150.5 264.644 153.246 263.121 151.415V133.413L269.215 104.122L275.005 95.273Z" fill="#3F3D56"/>
<path d="M288.487 90.075L291.764 92.8321C291.764 92.8321 305.171 94.9679 304.257 98.6294L300.601 141.957L301.819 156.603C301.819 156.603 291.459 153.856 283.537 156.603C275.614 159.349 281.908 97.591 281.908 97.591C281.908 97.591 289.172 90.9793 288.487 90.075Z" fill="#D0CDE1"/>
<path d="M276.528 93.4148C276.528 93.4148 266.777 100.46 265.558 105.037C264.34 109.614 260.378 157.823 260.378 157.823C260.378 157.823 262.207 156.908 263.121 158.433C264.035 159.959 278.052 95.8281 276.528 93.4148Z" fill="#D0CDE1"/>
<path d="M303.343 157.213L301.159 164.35C301.159 164.35 300.601 177.656 293.287 175.825C285.974 173.994 295.42 158.433 295.42 158.433L297.553 155.077L303.343 157.213Z" fill="#A0616A"/>
<path d="M272.419 78.2052C272.419 78.2052 271.331 76.5702 271.749 74.8093C272 73.8096 272.098 72.778 272.043 71.7489C272.043 71.7489 272.922 68.898 273.801 67.3049C274.68 65.7118 274.262 65.041 277.025 64.5379C279.788 64.0348 278.658 60.4293 285.943 64.3283C286.189 64.6719 286.531 64.9349 286.926 65.0841C287.32 65.2334 287.751 65.2621 288.162 65.1667C289.669 64.8733 290.213 66.9695 290.213 66.9695C290.213 66.9695 291.218 66.3825 291.595 67.221C291.972 68.0595 294.659 66.7178 294.659 72.3776C294.659 78.0374 291.601 83.093 291.601 83.093C291.601 83.093 291.825 73.5726 286.843 72.6083C281.861 71.644 276.502 68.8351 275.204 72.4406C274.503 74.4642 273.569 76.3989 272.419 78.2052Z" fill="#2F2E41"/>
<path d="M291.71 80.4689C292.253 80.4689 292.693 79.8815 292.693 79.1568C292.693 78.4322 292.253 77.8447 291.71 77.8447C291.168 77.8447 290.728 78.4322 290.728 79.1568C290.728 79.8815 291.168 80.4689 291.71 80.4689Z" fill="#A0616A"/>
<path d="M301.819 96.4937C301.819 96.4937 306.695 95.2732 308.218 103.511C309.742 111.75 311.57 135.244 311.57 135.244L304.257 159.959C304.257 159.959 296.944 155.992 295.42 156.603L301.175 135.146L296.335 113.275C296.335 113.275 300.601 96.4937 301.819 96.4937Z" fill="#D0CDE1"/>
<path opacity="0.15" d="M294.731 113.693L301.13 135.051L294.731 156.715L298.387 135.051L294.731 113.693Z" fill="black"/>
</g>
<defs>
<clipPath id="clip0_20_7310">
<rect width="314" height="264" fill="white"/>
</clipPath>
</defs>
</svg>
