<svg width="314" height="202" viewBox="0 0 314 202" fill="none" xmlns="http://www.w3.org/2000/svg">
<g clip-path="url(#clip0_20_7359)">
<rect width="314" height="200.442" transform="translate(0 0.671387)" fill="white"/>
<path d="M62.2078 200.953L61.3738 200.937C61.6964 191.669 62.6858 182.437 64.3343 173.311C67.9407 153.773 73.9375 140.941 82.1582 135.172L82.6371 135.854C63.4336 149.33 62.2176 200.438 62.2078 200.953Z" fill="#2F2E41"/>
<path d="M72.6328 200.754L71.7988 200.737C71.8167 199.814 72.338 178.06 80.9072 172.047L81.3861 172.729C73.1626 178.499 72.6369 200.532 72.6328 200.754Z" fill="#2F2E41"/>
<path d="M87.3817 135.93C89.6847 135.93 91.5516 134.064 91.5516 131.763C91.5516 129.461 89.6847 127.595 87.3817 127.595C85.0786 127.595 83.2117 129.461 83.2117 131.763C83.2117 134.064 85.0786 135.93 87.3817 135.93Z" fill="#C5E6EF"/>
<path d="M85.3166 171.772C87.6196 171.772 89.4866 169.906 89.4866 167.604C89.4866 165.302 87.6196 163.437 85.3166 163.437C83.0136 163.437 81.1466 165.302 81.1466 167.604C81.1466 169.906 83.0136 171.772 85.3166 171.772Z" fill="#C5E6EF"/>
<path d="M70.689 138.428C71.4727 143.431 69.4302 147.906 69.4302 147.906C69.4302 147.906 66.117 144.269 65.3333 139.266C64.5496 134.264 66.5922 129.789 66.5922 129.789C66.5922 129.789 69.9053 133.426 70.689 138.428Z" fill="#2F2E41"/>
<path d="M84.3196 150.579C79.527 152.222 74.7625 150.991 74.7625 150.991C74.7625 150.991 77.7681 147.097 82.5607 145.454C87.3532 143.811 92.1178 145.042 92.1178 145.042C92.1178 145.042 89.1121 148.936 84.3196 150.579Z" fill="#2F2E41"/>
<path d="M84.4735 182.32C82.3045 183.001 79.9945 183.1 77.7748 182.609C79.1842 180.815 81.0824 179.468 83.2407 178.728C85.399 177.988 87.7254 177.887 89.9395 178.439C88.4889 180.188 86.6041 181.527 84.4735 182.32V182.32Z" fill="#2F2E41"/>
<path d="M252.981 195.488H247.502L244.895 174.364L252.982 174.364L252.981 195.488Z" fill="#9E616A"/>
<path d="M254.379 200.796L236.71 200.796V200.572C236.71 198.749 237.435 197.001 238.725 195.712C240.014 194.423 241.763 193.699 243.587 193.699H243.588L254.379 193.7L254.379 200.796Z" fill="#2F2E41"/>
<path d="M219.162 195.488H213.682L211.076 174.364L219.163 174.364L219.162 195.488Z" fill="#9E616A"/>
<path d="M220.559 200.796L202.891 200.796V200.572C202.891 198.749 203.616 197.001 204.905 195.712C206.195 194.423 207.944 193.699 209.768 193.699H209.768L220.56 193.7L220.559 200.796Z" fill="#2F2E41"/>
<path d="M205.492 77.1957L197.903 76.0237L195.451 79.9679L169.067 86.6896L169.138 87.0531C168.392 86.2745 167.413 85.76 166.348 85.5875C165.283 85.4149 164.191 85.5937 163.237 86.0969C162.283 86.6 161.519 87.4 161.06 88.3758C160.601 89.3517 160.473 90.4503 160.695 91.5053C160.917 92.5604 161.477 93.5145 162.29 94.2232C163.103 94.9319 164.125 95.3568 165.201 95.4334C166.277 95.5099 167.348 95.2342 168.253 94.6477C169.159 94.0613 169.848 93.1961 170.217 92.1832L202.17 85.523L205.492 77.1957Z" fill="#9E616A"/>
<path d="M281.288 72.4991C280.663 72.4996 280.044 72.6185 279.464 72.8496L279.615 72.5856L246.07 55.2566L241.497 62.6457L276.372 78.1181C276.499 79.0624 276.896 79.9502 277.514 80.6753C278.132 81.4004 278.947 81.9322 279.86 82.2069C280.772 82.4817 281.745 82.4878 282.661 82.2246C283.578 81.9613 284.399 81.4399 285.026 80.7226C285.654 80.0054 286.061 79.1226 286.2 78.18C286.338 77.2373 286.203 76.2747 285.808 75.4072C285.414 74.5398 284.778 73.8042 283.976 73.2884C283.175 72.7727 282.242 72.4987 281.288 72.4991H281.288Z" fill="#9E616A"/>
<path d="M228.369 27.303C229.68 19.2288 224.194 11.6212 216.115 10.3109C208.036 9.00067 200.424 14.4839 199.113 22.5581C197.802 30.6323 203.289 38.2399 211.367 39.5502C219.446 40.8604 227.058 35.3772 228.369 27.303Z" fill="#2F2E41"/>
<path d="M213.614 39.6137C218.835 39.6137 223.067 35.3835 223.067 30.1653C223.067 24.9472 218.835 20.717 213.614 20.717C208.392 20.717 204.16 24.9472 204.16 30.1653C204.16 35.3835 208.392 39.6137 213.614 39.6137Z" fill="#A0616A"/>
<path d="M213.741 26.9736C219.386 26.9736 223.961 24.2297 223.961 20.8449C223.961 17.4602 219.386 14.7163 213.741 14.7163C208.097 14.7163 203.521 17.4602 203.521 20.8449C203.521 24.2297 208.097 26.9736 213.741 26.9736Z" fill="#2F2E41"/>
<path d="M214.763 16.2485C218.15 16.2485 220.895 13.5046 220.895 10.1198C220.895 6.73509 218.15 3.99121 214.763 3.99121C211.377 3.99121 208.631 6.73509 208.631 10.1198C208.631 13.5046 211.377 16.2485 214.763 16.2485Z" fill="#2F2E41"/>
<path d="M206.587 6.79999C206.587 5.28512 207.149 3.82395 208.163 2.69835C209.177 1.57274 210.573 0.862465 212.08 0.704525C211.868 0.682503 211.655 0.671441 211.442 0.671387C209.817 0.673281 208.259 1.31981 207.11 2.46894C205.962 3.61808 205.317 5.17584 205.317 6.80002C205.317 8.4242 205.962 9.98195 207.11 11.1311C208.259 12.2802 209.817 12.9268 211.442 12.9287C211.655 12.9286 211.868 12.9175 212.08 12.8955C210.573 12.7376 209.177 12.0273 208.163 10.9017C207.149 9.77607 206.587 8.31488 206.587 6.79999V6.79999Z" fill="#2F2E41"/>
<path d="M208.699 53.6216L209.461 46.2963C209.461 46.2963 219.805 39.4834 223.32 43.5101L244.332 79.4402C244.332 79.4402 257.394 84.0811 256.932 101.803L256.307 187.464L241.497 189.087L232.503 122.301L224.377 191.494L207.134 190.954L208.685 145.371L216.907 101.183L216.829 86.52L213.208 80.6025C213.208 80.6025 206.574 77.9392 206.389 70.4127L206.243 59.833L208.699 53.6216Z" fill="#2F2E41"/>
<path d="M219.545 45.5209L219.749 42.0872C219.749 42.0872 251.037 50.3274 248.555 56.2191C246.073 62.1108 241.419 63.9714 241.419 63.9714L223.423 56.8393L219.545 45.5209Z" fill="#2F2E41"/>
<path d="M211.369 54.0655L209.014 51.5564C209.014 51.5564 190.236 77.8911 195.915 80.8335C201.593 83.7759 206.361 82.2311 206.361 82.2311L215.631 65.2453L211.369 54.0655Z" fill="#2F2E41"/>
<path d="M173.782 139.817L291.609 116.31L281.763 67.0083L163.935 90.5153L173.782 139.817Z" fill="white"/>
<path d="M292.574 116.953L173.139 140.78L162.971 89.8721L282.406 66.0444L292.574 116.953ZM174.425 138.853L290.645 115.667L281.119 67.9719L164.899 91.1581L174.425 138.853Z" fill="#E4E4E4"/>
<path d="M273.713 82.8028L178.357 101.827L178.853 104.311L274.209 85.2876L273.713 82.8028Z" fill="#E4E4E4"/>
<path d="M275.645 92.4778L180.289 111.502L180.785 113.987L276.141 94.9627L275.645 92.4778Z" fill="#E4E4E4"/>
<path d="M277.589 102.209L182.233 121.233L182.729 123.717L278.085 104.694L277.589 102.209Z" fill="#E4E4E4"/>
<path d="M228.152 98.2435L224.817 98.9089C224.573 98.9572 224.32 98.907 224.114 98.7692C223.907 98.6314 223.764 98.4173 223.715 98.1739L222.138 90.2794C222.09 90.0359 222.14 89.7832 222.278 89.5767C222.416 89.3702 222.63 89.2268 222.873 89.1779L226.208 88.5126C226.452 88.4642 226.705 88.5145 226.912 88.6523C227.118 88.79 227.262 89.0041 227.311 89.2475L228.887 97.142C228.936 97.3855 228.885 97.6382 228.748 97.8447C228.61 98.0512 228.395 98.1946 228.152 98.2435V98.2435Z" fill="#C5E6EF"/>
<path d="M266.14 100.725L262.805 101.391C262.561 101.439 262.308 101.389 262.102 101.251C261.895 101.113 261.752 100.899 261.703 100.656L260.126 92.7613C260.078 92.5178 260.128 92.2651 260.266 92.0586C260.404 91.8521 260.618 91.7087 260.861 91.6598L264.196 90.9945C264.44 90.9462 264.693 90.9964 264.899 91.1342C265.106 91.272 265.25 91.486 265.298 91.7294L266.875 99.6239C266.924 99.8674 266.873 100.12 266.735 100.327C266.598 100.533 266.383 100.677 266.14 100.725Z" fill="#C5E6EF"/>
<path d="M245.568 114.948L242.233 115.614C241.989 115.662 241.736 115.612 241.53 115.474C241.323 115.336 241.18 115.122 241.131 114.879L239.554 106.984C239.505 106.741 239.556 106.488 239.694 106.282C239.831 106.075 240.046 105.932 240.289 105.883L243.624 105.217C243.868 105.169 244.121 105.219 244.327 105.357C244.534 105.495 244.677 105.709 244.726 105.952L246.303 113.847C246.351 114.09 246.301 114.343 246.163 114.55C246.026 114.756 245.811 114.899 245.568 114.948V114.948Z" fill="#C5E6EF"/>
<path d="M313.583 201.113H0.416999C0.306404 201.113 0.200338 201.069 0.122136 200.991C0.0439333 200.913 0 200.807 0 200.696C0 200.586 0.0439333 200.48 0.122136 200.402C0.200338 200.323 0.306404 200.28 0.416999 200.28H313.583C313.694 200.28 313.8 200.323 313.878 200.402C313.956 200.48 314 200.586 314 200.696C314 200.807 313.956 200.913 313.878 200.991C313.8 201.069 313.694 201.113 313.583 201.113Z" fill="#CACACA"/>
</g>
<defs>
<clipPath id="clip0_20_7359">
<rect width="314" height="200.442" fill="white" transform="translate(0 0.671387)"/>
</clipPath>
</defs>
</svg>
